<?xml version="1.0" encoding="UTF-8"?>
<svg version="1.1" viewBox="0 0 2048 518" width="1280" height="1280" xmlns="http://www.w3.org/2000/svg">
<path transform="translate(377,82)" d="m0 0h31l20 3 19 5 15 6 21 11 14 10 10 8v2l-11 4-6 4-7 10-3 3-11-9-16-10-17-7-18-4-9-1h-35l-20 4-19 7-18 10-7 5 43 2 24 3 14 7 11 9 9 9 6 10 4 13 1 6v19l-3 15-5 13-8 11-9 8-14 8-13 5 7 12 10 15 33 51 13 20 11 17 8 12-3 3-17 5-17 3-5-1-10-16-11-17-14-22-13-20-16-25-13-20-9-14v-2l-40 1-22 1 5 17 9 19 12 17 12 13 14 11 17 10 22 9 17 4 13 1 10 15 11 18v2h-25l-21-3-19-5-15-6-16-8-14-9-10-8-10-9-10-10-10-13-10-16-10-21-6-19-4-21-1-14v-11l133-1 11-4 6-4 5-6 4-10v-15l-4-11-7-8-8-4-3-1-90-1-32-1 8-16 8-12 11-14 18-18 15-11 15-9 17-8 15-5 17-4z" fill="#E7AC40"/>
<path transform="translate(1e3 181)" d="m0 0h106l14 3 11 7 7 8 5 10 2 7v20l-4 11-7 9h-2v2l4 2 6 8 4 11 1 6v11l-3 13-5 9-9 10-10 5-9 2h-112l-5-5v-144l4-4zm32 39-1 1v23h65l7-3 3-3 1-9-3-6-6-3zm-1 51v26l9 1h54l8-2 5-6 1-9-5-8-7-2z" fill="#FEFEFE"/>
<path transform="translate(1178,181)" d="m0 0h130v41l-107 1-1 20h108v29l-3 1h-105v22h103l5 1v39h-132l-8-4-5-10v-126l4-8 5-4z" fill="#FEFEFE"/>
<path transform="translate(683,181)" d="m0 0h106l1 4v36l-1 1-103 1-5 3-1 2v9l4 4 5 1 73 1 11 4 8 6 8 9 5 11 2 8v16l-4 13-7 11-9 8-12 5-5 1h-116v-39l2-1h77l29-1 4-4 1-9-3-5-2-2-54-1-22-1-10-3-10-6-7-8-6-12-2-7v-18l4-12 7-11 8-7 8-4 7-2z" fill="#FEFEFE"/>
<path transform="translate(883,178)" d="m0 0h16l10 3 8 5 5 5 6 8 10 23 20 49 16 39 9 22v3h-42l-9-23-82-1-1 5-7 19h-43l3-10 22-54 17-42 12-29 8-11 9-7zm7 39-5 4-21 55v1h54l-1-6-16-41-4-9-2-3z" fill="#FEFEFE"/>
<path transform="translate(1723,178)" d="m0 0h16l10 3 10 6 8 10 7 15 22 54 16 39 11 27v3h-42l-8-21v-3h-83l-1 5-7 19h-43l3-10 42-103 9-21 6-10 8-7 8-4zm8 39-5 3-11 27-11 29v1h54l-1-6-19-49-3-4z" fill="#FEFEFE"/>
<path transform="translate(1482,181)" d="m0 0h37l1 1v98l2 12 3 2 6 1 97 1v39h-111l-12-3-8-4-7-7-5-10-3-16z" fill="#FEFEFE"/>
<path transform="translate(1325,181)" d="m0 0h37l1 106 3 6 8 2 96 1 1 38-1 1h-110l-13-3-10-6-6-8-4-9-2-10z" fill="#FEFEFE"/>
<path transform="translate(544,180)" d="m0 0 2 3 6 15 5 18 3 18v34l-3 19-6 21-8 18-9 16-8 11-11 13-11 11-13 10-16 10-16 8h-2l-16-26v-2h-2v-2l13-5 15-8 11-9 10-9 8-10 15-25 5-10 4-14 3-21 1-11v-16l-4-20-6-18v-2l16-4 9-7z" fill="#F9F1E5"/>
<path transform="translate(588,181)" d="m0 0h37v154h-38v-153z" fill="#FEFEFE"/>
<path transform="translate(544,180)" d="m0 0 2 3 6 15 5 18 3 18v34l-3 17-2 1-27 1-6-1-1-7 3-26v-16l-4-20-6-18v-2l16-4 9-7z" fill="#E7AC40"/>
<path transform="translate(511,133)" d="m0 0 11 1 10 5 7 8 4 10v10l-4 11-6 7-9 5-5 1h-11l-10-4-6-5-5-8-2-7v-10l4-10 7-8 10-5z" fill="#E7AC40"/>
<path transform="translate(478,363)" d="m0 0h13l19 1 3 2-8 8-1 3-13 10-16 10-16 8h-2l-16-26v-2h-2v-2l13-5 8-4 5-1 4-1z" fill="#E7AE47"/>
<path transform="translate(501,330)" d="m0 0 27 1 9 1 1 3-10 16-13 15-10 10v-3l7-7-7-1-14-1h-13l-12 1-4 2 1-3 9-6 13-11 9-10 5-5z" fill="#F9F1E5"/>
<path transform="translate(549,307)" d="m0 0 2 1-8 18-4 8h-2v-2l-36-1-4 2 8-14 6-10h33z" fill="#FEFEFE"/>
</svg>
